<?xml version="1.0" encoding="UTF-8" standalone="no"?>
<!DOCTYPE svg PUBLIC "-//W3C//DTD SVG 1.1//EN" "http://www.w3.org/Graphics/SVG/1.1/DTD/svg11.dtd">
<svg version="1.1" xmlns="http://www.w3.org/2000/svg" xmlns:xlink="http://www.w3.org/1999/xlink" preserveAspectRatio="xMidYMid meet" viewBox="0 0 640 640" width="35" height="35"><defs><path d="M287.34 223.28C287.34 294.03 229.9 351.47 159.16 351.47C88.41 351.47 30.97 294.03 30.97 223.28C30.97 152.54 88.41 95.1 159.16 95.1C229.9 95.1 287.34 152.54 287.34 223.28Z" id="b1J5DNA3Sf"></path><path d="M448.74 137.16C448.74 207.9 391.3 265.34 320.56 265.34C249.81 265.34 192.37 207.9 192.37 137.16C192.37 66.41 249.81 8.97 320.56 8.97C391.3 8.97 448.74 66.41 448.74 137.16Z" id="aqaAPJGXJ"></path><path d="M353.77 223.25C353.77 294 411.21 351.43 481.96 351.43C552.7 351.43 610.14 294 610.14 223.25C610.14 152.51 552.7 95.07 481.96 95.07C411.21 95.07 353.77 152.51 353.77 223.25Z" id="f4mgfRZMdH"></path><path d="M192.37 137.12C192.37 207.87 249.81 265.31 320.56 265.31C391.3 265.31 448.74 207.87 448.74 137.12C448.74 66.38 391.3 8.94 320.56 8.94C249.81 8.94 192.37 66.38 192.37 137.12Z" id="bC9kVVFg0"></path><path d="M479.38 197.88C494.8 197.88 507.31 210.39 507.31 225.81C507.31 298.46 507.31 488.49 507.31 561.14C507.31 576.56 494.8 589.06 479.38 589.06C411.59 589.06 236.15 589.06 168.36 589.06C152.94 589.06 140.44 576.56 140.44 561.14C140.44 488.49 140.44 298.46 140.44 225.81C140.44 210.39 152.94 197.88 168.36 197.88C236.15 197.88 411.59 197.88 479.38 197.88Z" id="cxBCmjcB"></path></defs><g visibility="inherit"><g visibility="inherit"><g visibility="inherit"><g visibility="inherit"><g visibility="inherit"><g visibility="inherit"><use xlink:href="#b1J5DNA3Sf" opacity="1" fill="#e7e7e7" fill-opacity="1"></use></g><g visibility="inherit"><use xlink:href="#aqaAPJGXJ" opacity="1" fill="#e7e7e7" fill-opacity="1"></use></g></g><g visibility="inherit"><g visibility="inherit"><use xlink:href="#f4mgfRZMdH" opacity="1" fill="#e7e7e7" fill-opacity="1"></use></g><g visibility="inherit"><use xlink:href="#bC9kVVFg0" opacity="1" fill="#e7e7e7" fill-opacity="1"></use></g></g></g><g visibility="inherit"><use xlink:href="#cxBCmjcB" opacity="1" fill="#e7e7e7" fill-opacity="1"></use></g></g></g></g></svg>